<svg xmlns="http://www.w3.org/2000/svg" viewBox="0 0 3677.66 933.28"><defs><style>.cls-1,.cls-3{fill:#00bbb6;}.cls-2{fill:#fff;}.cls-3{font-size:752.11px;font-family:Norwester-Regular, Norwester;}.cls-4{letter-spacing:-0.01em;}</style></defs><title>Artboard 1</title><g id="Layer_4" data-name="Layer 4"><path class="cls-1" d="M922.11,412.62c0,204.43-165.73,370.16-370.16,370.16a368.47,368.47,0,0,1-155.68-34.24c-126.65-58.78-214.48-187.1-214.48-335.92C181.79,208.19,347.52,42.46,552,42.46A368.75,368.75,0,0,1,708.69,77.18C834.77,136.2,922.11,264.21,922.11,412.62Z"/><path class="cls-2" d="M743.05,469.05l-21.78,21.43L444.74,767a367.42,367.42,0,0,1-48.47-18.47l235.49-232.1H361.61L409,469.05Z"/><polygon class="cls-2" points="361.61 436.69 679.1 436.69 743.05 389.3 409.76 389.3 361.61 436.69"/><path class="cls-2" d="M742.3,310.3l-63.2,47.4H425.56l-64.53.17.16-.17h-.34l21.78-21.44L660.32,58.58a368.59,368.59,0,0,1,48.37,18.6L473.4,310.3Z"/></g><g id="Layer_6" data-name="Layer 6"><text class="cls-3" transform="translate(995.24 766.81)"><tspan class="cls-4">Ev</tspan><tspan x="753.61" y="0">en</tspan><tspan class="cls-4" x="1525.26" y="0">t</tspan><tspan x="1863.71" y="0">is</tspan></text></g></svg>